<svg width="24" height="25" viewBox="0 0 24 25" fill="none" xmlns="http://www.w3.org/2000/svg">
<path d="M0 12.5894C0 10.6951 0.277018 8.97689 0.831055 7.43457C1.39258 5.89225 2.18994 4.56706 3.22314 3.45898C4.25635 2.35091 5.49544 1.4974 6.94043 0.898438C8.38542 0.299479 9.99137 0 11.7583 0C13.5252 0 15.1312 0.299479 16.5762 0.898438C18.0212 1.4974 19.2603 2.35091 20.2935 3.45898C21.3341 4.56706 22.1315 5.89225 22.6855 7.43457C23.2471 8.97689 23.5278 10.6951 23.5278 12.5894C23.5278 13.7274 23.4193 14.8916 23.2021 16.082C22.9925 17.2725 22.6855 18.4367 22.2812 19.5747C21.8844 20.7052 21.409 21.7609 20.855 22.7417C20.6753 23.0487 20.4245 23.2433 20.1025 23.3257C19.7881 23.408 19.4699 23.3594 19.1479 23.1797C18.8335 23.015 18.6351 22.7716 18.5527 22.4497C18.4779 22.1278 18.534 21.8021 18.7212 21.4727C19.4549 20.125 20.0239 18.68 20.4282 17.1377C20.8325 15.5954 21.0347 14.0793 21.0347 12.5894C21.0347 11.0695 20.8138 9.69189 20.3721 8.45654C19.9303 7.22119 19.3014 6.15804 18.4854 5.26709C17.6693 4.37614 16.6922 3.69108 15.5542 3.21191C14.4162 2.72526 13.1509 2.48193 11.7583 2.48193C10.3732 2.48193 9.10791 2.72526 7.9624 3.21191C6.82438 3.69108 5.84733 4.37614 5.03125 5.26709C4.21517 6.15804 3.58626 7.22119 3.14453 8.45654C2.71029 9.69189 2.49316 11.0695 2.49316 12.5894C2.49316 14.0793 2.69157 15.5954 3.08838 17.1377C3.49268 18.68 4.06169 20.125 4.79541 21.4727C4.98258 21.8021 5.03499 22.1278 4.95264 22.4497C4.87777 22.7716 4.68311 23.015 4.36865 23.1797C4.04671 23.3594 3.72477 23.408 3.40283 23.3257C3.08838 23.2433 2.84131 23.0487 2.66162 22.7417C2.11507 21.7609 1.63965 20.7052 1.23535 19.5747C0.838542 18.4367 0.531576 17.2725 0.314453 16.082C0.104818 14.8916 0 13.7274 0 12.5894ZM3.98682 22.4272L2.36963 17.2051C2.15251 16.5163 2.1862 15.8949 2.4707 15.3408C2.75521 14.7868 3.24186 14.4049 3.93066 14.1953C4.61947 13.9857 5.23714 14.0231 5.78369 14.3076C6.33024 14.5921 6.71208 15.075 6.9292 15.7563L8.54639 20.9785C8.76351 21.6598 8.72982 22.2775 8.44531 22.8315C8.16081 23.3856 7.67415 23.7674 6.98535 23.9771C6.29655 24.1942 5.67887 24.1605 5.13232 23.876C4.58577 23.5915 4.20394 23.1086 3.98682 22.4272ZM19.5298 22.4272C19.3201 23.1086 18.9383 23.5915 18.3843 23.876C17.8377 24.1605 17.2201 24.1942 16.5312 23.9771C15.8424 23.7674 15.3558 23.3856 15.0713 22.8315C14.7868 22.2775 14.7531 21.6598 14.9702 20.9785L16.5874 15.7563C16.8045 15.075 17.1864 14.5921 17.7329 14.3076C18.2795 14.0231 18.8971 13.9857 19.5859 14.1953C20.2747 14.4049 20.7614 14.7868 21.0459 15.3408C21.3379 15.8949 21.3716 16.5163 21.147 17.2051L19.5298 22.4272Z" fill="#8E8E93"/>
</svg>
